<svg width="1200" height="64" viewBox="0 0 1200 64" fill="none" xmlns="http://www.w3.org/2000/svg">
<rect width="1200" height="64" rx="4" fill="#F4F4F4"/>
<path d="M31.502 38H29.702L25.868 32.888L22.034 38H20.216L24.896 31.844L20.486 25.994H22.304L25.868 30.8L29.414 25.994H31.232L26.84 31.826L31.502 38ZM40.0042 36.902C39.2242 37.778 38.1862 38.216 36.8902 38.216C35.5942 38.216 34.5502 37.778 33.7582 36.902C32.9782 36.026 32.5882 34.94 32.5882 33.644C32.5882 32.348 32.9782 31.268 33.7582 30.404C34.5502 29.528 35.5942 29.09 36.8902 29.09C38.1862 29.09 39.2242 29.528 40.0042 30.404C40.7962 31.268 41.1922 32.348 41.1922 33.644C41.1922 34.94 40.7962 36.026 40.0042 36.902ZM34.7662 36.038C35.2942 36.686 36.0022 37.01 36.8902 37.01C37.7782 37.01 38.4802 36.686 38.9962 36.038C39.5122 35.378 39.7702 34.58 39.7702 33.644C39.7702 32.708 39.5122 31.916 38.9962 31.268C38.4802 30.62 37.7782 30.296 36.8902 30.296C36.0022 30.296 35.2942 30.626 34.7662 31.286C34.2502 31.934 33.9922 32.72 33.9922 33.644C33.9922 34.58 34.2502 35.378 34.7662 36.038ZM46.327 38H44.977V30.494H42.457V29.306H48.865V30.494H46.327V38ZM51.9312 38H50.6352V29.306H51.9852V35.948L56.5392 29.306H57.8712V38H56.5212V31.232L51.9312 38ZM63.5008 38H62.1508V30.494H59.6308V29.306H66.0388V30.494H63.5008V38ZM71.733 38.216C70.437 38.216 69.375 37.796 68.547 36.956C67.719 36.104 67.305 35 67.305 33.644C67.305 32.372 67.713 31.298 68.529 30.422C69.345 29.534 70.365 29.09 71.589 29.09C72.873 29.09 73.887 29.534 74.631 30.422C75.387 31.298 75.765 32.408 75.765 33.752V34.094H68.727C68.787 34.946 69.099 35.66 69.663 36.236C70.227 36.812 70.959 37.1 71.859 37.1C72.939 37.1 73.833 36.734 74.541 36.002L75.189 36.884C74.301 37.772 73.149 38.216 71.733 38.216ZM74.433 33.104C74.421 32.36 74.169 31.694 73.677 31.106C73.185 30.506 72.483 30.206 71.571 30.206C70.707 30.206 70.023 30.5 69.519 31.088C69.027 31.676 68.763 32.348 68.727 33.104H74.433ZM89.8282 38H88.4782V30.494H83.9422V38H82.5922V29.306H89.8282V38ZM96.4478 38.216C95.1518 38.216 94.0898 37.796 93.2618 36.956C92.4338 36.104 92.0198 35 92.0198 33.644C92.0198 32.372 92.4278 31.298 93.2438 30.422C94.0598 29.534 95.0798 29.09 96.3038 29.09C97.5878 29.09 98.6018 29.534 99.3458 30.422C100.102 31.298 100.48 32.408 100.48 33.752V34.094H93.4418C93.5018 34.946 93.8138 35.66 94.3778 36.236C94.9418 36.812 95.6738 37.1 96.5738 37.1C97.6538 37.1 98.5478 36.734 99.2558 36.002L99.9038 36.884C99.0158 37.772 97.8638 38.216 96.4478 38.216ZM99.1478 33.104C99.1358 32.36 98.8838 31.694 98.3918 31.106C97.8998 30.506 97.1978 30.206 96.2858 30.206C95.4218 30.206 94.7378 30.5 94.2338 31.088C93.7418 31.676 93.4778 32.348 93.4418 33.104H99.1478ZM106.95 38.216C105.726 38.216 104.748 37.706 104.016 36.686V41.312H102.666V29.306H104.016V30.602C104.34 30.146 104.76 29.78 105.276 29.504C105.792 29.228 106.35 29.09 106.95 29.09C108.102 29.09 109.032 29.504 109.74 30.332C110.46 31.148 110.82 32.252 110.82 33.644C110.82 35.036 110.46 36.146 109.74 36.974C109.032 37.802 108.102 38.216 106.95 38.216ZM106.608 37.01C107.46 37.01 108.138 36.698 108.642 36.074C109.146 35.438 109.398 34.628 109.398 33.644C109.398 32.66 109.146 31.856 108.642 31.232C108.138 30.608 107.46 30.296 106.608 30.296C106.092 30.296 105.588 30.434 105.096 30.71C104.616 30.974 104.256 31.298 104.016 31.682V35.606C104.256 36.002 104.616 36.338 105.096 36.614C105.588 36.878 106.092 37.01 106.608 37.01ZM116.891 38.216C115.595 38.216 114.533 37.796 113.705 36.956C112.877 36.104 112.463 35 112.463 33.644C112.463 32.372 112.871 31.298 113.687 30.422C114.503 29.534 115.523 29.09 116.747 29.09C118.031 29.09 119.045 29.534 119.789 30.422C120.545 31.298 120.923 32.408 120.923 33.752V34.094H113.885C113.945 34.946 114.257 35.66 114.821 36.236C115.385 36.812 116.117 37.1 117.017 37.1C118.097 37.1 118.991 36.734 119.699 36.002L120.347 36.884C119.459 37.772 118.307 38.216 116.891 38.216ZM119.591 33.104C119.579 32.36 119.327 31.694 118.835 31.106C118.343 30.506 117.641 30.206 116.729 30.206C115.865 30.206 115.181 30.5 114.677 31.088C114.185 31.676 113.921 32.348 113.885 33.104H119.591ZM127.034 38.216C125.738 38.216 124.676 37.796 123.848 36.956C123.02 36.104 122.606 35 122.606 33.644C122.606 32.372 123.014 31.298 123.83 30.422C124.646 29.534 125.666 29.09 126.89 29.09C128.174 29.09 129.188 29.534 129.932 30.422C130.688 31.298 131.066 32.408 131.066 33.752V34.094H124.028C124.088 34.946 124.4 35.66 124.964 36.236C125.528 36.812 126.26 37.1 127.16 37.1C128.24 37.1 129.134 36.734 129.842 36.002L130.49 36.884C129.602 37.772 128.45 38.216 127.034 38.216ZM129.734 33.104C129.722 32.36 129.47 31.694 128.978 31.106C128.486 30.506 127.784 30.206 126.872 30.206C126.008 30.206 125.324 30.5 124.82 31.088C124.328 31.676 124.064 32.348 124.028 33.104H129.734ZM140.452 38H138.886L136.276 34.436L133.666 38H132.118L135.448 33.536L132.298 29.306H133.864L136.276 32.618L138.688 29.306H140.254L137.104 33.536L140.452 38ZM148.792 38H147.442V37.01C146.71 37.814 145.75 38.216 144.562 38.216C143.758 38.216 143.05 37.958 142.438 37.442C141.826 36.926 141.52 36.224 141.52 35.336C141.52 34.424 141.82 33.722 142.42 33.23C143.032 32.726 143.746 32.474 144.562 32.474C145.798 32.474 146.758 32.87 147.442 33.662V32.096C147.442 31.52 147.238 31.07 146.83 30.746C146.422 30.422 145.894 30.26 145.246 30.26C144.226 30.26 143.338 30.662 142.582 31.466L141.952 30.53C142.876 29.57 144.034 29.09 145.426 29.09C146.422 29.09 147.232 29.33 147.856 29.81C148.48 30.29 148.792 31.028 148.792 32.024V38ZM145.048 37.244C146.128 37.244 146.926 36.884 147.442 36.164V34.526C146.926 33.806 146.128 33.446 145.048 33.446C144.424 33.446 143.908 33.626 143.5 33.986C143.104 34.334 142.906 34.79 142.906 35.354C142.906 35.906 143.104 36.362 143.5 36.722C143.908 37.07 144.424 37.244 145.048 37.244ZM154.432 38H153.082V30.494H150.562V29.306H156.97V30.494H154.432V38ZM158.741 29.306H160.091V32.672H163.349C164.213 32.672 164.885 32.93 165.365 33.446C165.845 33.95 166.085 34.58 166.085 35.336C166.085 36.092 165.839 36.728 165.347 37.244C164.867 37.748 164.201 38 163.349 38H158.741V29.306ZM163.205 33.86H160.091V36.812H163.205C163.685 36.812 164.051 36.68 164.303 36.416C164.567 36.14 164.699 35.78 164.699 35.336C164.699 34.892 164.567 34.538 164.303 34.274C164.051 33.998 163.685 33.86 163.205 33.86ZM177.664 38H172.786V29.306H177.574C178.33 29.306 178.924 29.51 179.356 29.918C179.8 30.326 180.022 30.866 180.022 31.538C180.022 32.03 179.884 32.456 179.608 32.816C179.344 33.164 179.014 33.398 178.618 33.518C179.062 33.626 179.434 33.884 179.734 34.292C180.046 34.7 180.202 35.15 180.202 35.642C180.202 36.35 179.974 36.92 179.518 37.352C179.074 37.784 178.456 38 177.664 38ZM177.394 36.812C177.826 36.812 178.168 36.692 178.42 36.452C178.672 36.212 178.798 35.888 178.798 35.48C178.798 35.108 178.672 34.79 178.42 34.526C178.168 34.262 177.826 34.13 177.394 34.13H174.136V36.812H177.394ZM177.34 32.942C177.748 32.942 178.066 32.834 178.294 32.618C178.522 32.39 178.636 32.096 178.636 31.736C178.636 31.352 178.522 31.052 178.294 30.836C178.066 30.608 177.748 30.494 177.34 30.494H174.136V32.942H177.34ZM196.555 38H194.701L190.147 32.6L188.941 33.968V38H187.447V25.994H188.941V32.204L194.251 25.994H196.123L191.119 31.7L196.555 38ZM204.691 38H203.341V37.01C202.609 37.814 201.649 38.216 200.461 38.216C199.657 38.216 198.949 37.958 198.337 37.442C197.725 36.926 197.419 36.224 197.419 35.336C197.419 34.424 197.719 33.722 198.319 33.23C198.931 32.726 199.645 32.474 200.461 32.474C201.697 32.474 202.657 32.87 203.341 33.662V32.096C203.341 31.52 203.137 31.07 202.729 30.746C202.321 30.422 201.793 30.26 201.145 30.26C200.125 30.26 199.237 30.662 198.481 31.466L197.851 30.53C198.775 29.57 199.933 29.09 201.325 29.09C202.321 29.09 203.131 29.33 203.755 29.81C204.379 30.29 204.691 31.028 204.691 32.024V38ZM200.947 37.244C202.027 37.244 202.825 36.884 203.341 36.164V34.526C202.825 33.806 202.027 33.446 200.947 33.446C200.323 33.446 199.807 33.626 199.399 33.986C199.003 34.334 198.805 34.79 198.805 35.354C198.805 35.906 199.003 36.362 199.399 36.722C199.807 37.07 200.323 37.244 200.947 37.244ZM208.747 38H207.397V29.306H208.747V32.924H213.283V29.306H214.633V38H213.283V34.112H208.747V38ZM224.115 38H222.765V37.01C222.033 37.814 221.073 38.216 219.885 38.216C219.081 38.216 218.373 37.958 217.761 37.442C217.149 36.926 216.843 36.224 216.843 35.336C216.843 34.424 217.143 33.722 217.743 33.23C218.355 32.726 219.069 32.474 219.885 32.474C221.121 32.474 222.081 32.87 222.765 33.662V32.096C222.765 31.52 222.561 31.07 222.153 30.746C221.745 30.422 221.217 30.26 220.569 30.26C219.549 30.26 218.661 30.662 217.905 31.466L217.275 30.53C218.199 29.57 219.357 29.09 220.749 29.09C221.745 29.09 222.555 29.33 223.179 29.81C223.803 30.29 224.115 31.028 224.115 32.024V38ZM220.371 37.244C221.451 37.244 222.249 36.884 222.765 36.164V34.526C222.249 33.806 221.451 33.446 220.371 33.446C219.747 33.446 219.231 33.626 218.823 33.986C218.427 34.334 218.229 34.79 218.229 35.354C218.229 35.906 218.427 36.362 218.823 36.722C219.231 37.07 219.747 37.244 220.371 37.244ZM225.795 40.214V36.884C226.239 36.8 226.587 36.536 226.839 36.092C227.091 35.636 227.295 34.802 227.451 33.59L228.009 29.306H234.057V36.812H235.065V40.214H233.715V38H227.145V40.214H225.795ZM229.197 30.494L228.801 33.752C228.597 35.276 228.177 36.296 227.541 36.812H232.707V30.494H229.197ZM236.425 41.402L236.641 40.178C236.857 40.274 237.103 40.322 237.379 40.322C237.691 40.322 237.949 40.256 238.153 40.124C238.357 39.992 238.531 39.752 238.675 39.404L239.251 38.09L235.615 29.306H237.073L239.971 36.434L242.851 29.306H244.327L239.971 39.764C239.491 40.916 238.639 41.504 237.415 41.528C237.055 41.528 236.725 41.486 236.425 41.402ZM247.986 34.67C247.518 34.274 247.284 33.788 247.284 33.212C247.284 32.852 247.362 32.522 247.518 32.222C247.686 31.922 247.89 31.676 248.13 31.484C248.37 31.292 248.628 31.094 248.904 30.89C249.192 30.674 249.456 30.476 249.696 30.296C249.936 30.116 250.134 29.9 250.29 29.648C250.458 29.396 250.542 29.12 250.542 28.82C250.542 28.34 250.356 27.944 249.984 27.632C249.624 27.308 249.102 27.146 248.418 27.146C247.254 27.146 246.3 27.638 245.556 28.622L244.656 27.65C245.604 26.426 246.906 25.814 248.562 25.814C249.63 25.814 250.482 26.084 251.118 26.624C251.766 27.152 252.09 27.812 252.09 28.604C252.09 29.216 251.904 29.762 251.532 30.242C251.172 30.71 250.776 31.07 250.344 31.322C249.912 31.574 249.51 31.874 249.138 32.222C248.778 32.57 248.598 32.936 248.598 33.32C248.598 33.656 248.76 33.95 249.084 34.202L247.986 34.67ZM249.048 37.892C248.856 38.084 248.628 38.18 248.364 38.18C248.1 38.18 247.866 38.084 247.662 37.892C247.47 37.7 247.374 37.466 247.374 37.19C247.374 36.914 247.47 36.68 247.662 36.488C247.866 36.296 248.1 36.2 248.364 36.2C248.628 36.2 248.856 36.296 249.048 36.488C249.252 36.68 249.354 36.914 249.354 37.19C249.354 37.466 249.252 37.7 249.048 37.892Z" fill="black"/>
<path d="M264.188 25.994H272.954V28.244H266.744V30.368H269.858C271.094 30.368 272.066 30.734 272.774 31.466C273.482 32.198 273.836 33.104 273.836 34.184C273.836 35.264 273.482 36.17 272.774 36.902C272.066 37.634 271.094 38 269.858 38H264.188V25.994ZM269.516 32.618H266.744V35.75H269.516C270.02 35.75 270.428 35.606 270.74 35.318C271.064 35.03 271.226 34.652 271.226 34.184C271.226 33.704 271.064 33.326 270.74 33.05C270.428 32.762 270.02 32.618 269.516 32.618ZM279.452 38.216C278.108 38.216 276.998 37.796 276.122 36.956C275.246 36.116 274.808 35.012 274.808 33.644C274.808 32.36 275.228 31.28 276.068 30.404C276.92 29.528 278 29.09 279.308 29.09C280.604 29.09 281.654 29.534 282.458 30.422C283.262 31.298 283.664 32.45 283.664 33.878V34.382H277.202C277.274 34.958 277.532 35.438 277.976 35.822C278.42 36.206 278.996 36.398 279.704 36.398C280.088 36.398 280.502 36.32 280.946 36.164C281.402 36.008 281.762 35.798 282.026 35.534L283.034 37.01C282.158 37.814 280.964 38.216 279.452 38.216ZM281.45 32.834C281.414 32.342 281.216 31.898 280.856 31.502C280.508 31.106 279.992 30.908 279.308 30.908C278.66 30.908 278.156 31.106 277.796 31.502C277.436 31.886 277.226 32.33 277.166 32.834H281.45ZM289.366 38.216C288.022 38.216 286.918 37.79 286.054 36.938C285.19 36.086 284.758 34.988 284.758 33.644C284.758 32.312 285.19 31.22 286.054 30.368C286.918 29.516 288.022 29.09 289.366 29.09C290.902 29.09 292.048 29.612 292.804 30.656L291.31 32.06C290.89 31.436 290.278 31.124 289.474 31.124C288.778 31.124 288.208 31.358 287.764 31.826C287.332 32.282 287.116 32.888 287.116 33.644C287.116 34.4 287.332 35.012 287.764 35.48C288.208 35.948 288.778 36.182 289.474 36.182C290.254 36.182 290.866 35.87 291.31 35.246L292.804 36.632C292.048 37.688 290.902 38.216 289.366 38.216ZM302.47 38H300.184V31.304H296.584V38H294.298V29.306H302.47V38ZM303.929 38.216V36.344C304.289 36.344 304.577 36.134 304.793 35.714C305.009 35.282 305.183 34.55 305.315 33.518L305.873 29.306H312.911V38H310.625V31.304H307.871L307.583 33.788C307.403 35.312 307.019 36.434 306.431 37.154C305.855 37.862 305.021 38.216 303.929 38.216ZM322.687 38H320.401V37.1C319.777 37.844 318.859 38.216 317.647 38.216C316.867 38.216 316.165 37.964 315.541 37.46C314.929 36.944 314.623 36.236 314.623 35.336C314.623 34.4 314.923 33.698 315.523 33.23C316.135 32.762 316.843 32.528 317.647 32.528C318.883 32.528 319.801 32.882 320.401 33.59V32.42C320.401 31.976 320.227 31.622 319.879 31.358C319.531 31.094 319.069 30.962 318.493 30.962C317.545 30.962 316.699 31.304 315.955 31.988L315.091 30.458C316.123 29.546 317.389 29.09 318.889 29.09C320.005 29.09 320.917 29.348 321.625 29.864C322.333 30.38 322.687 31.22 322.687 32.384V38ZM318.565 36.668C319.417 36.668 320.029 36.416 320.401 35.912V34.832C320.029 34.328 319.417 34.076 318.565 34.076C318.097 34.076 317.707 34.196 317.395 34.436C317.083 34.664 316.927 34.982 316.927 35.39C316.927 35.786 317.083 36.098 317.395 36.326C317.707 36.554 318.097 36.668 318.565 36.668ZM328.86 38H326.556V31.304H324.126V29.306H331.29V31.304H328.86V38ZM335.01 38H332.724V29.306H335.01V32.528H338.61V29.306H340.896V38H338.61V34.526H335.01V38ZM350.545 36.902C349.705 37.778 348.589 38.216 347.197 38.216C345.805 38.216 344.689 37.778 343.849 36.902C343.021 36.014 342.607 34.928 342.607 33.644C342.607 32.36 343.021 31.28 343.849 30.404C344.689 29.528 345.805 29.09 347.197 29.09C348.589 29.09 349.705 29.528 350.545 30.404C351.385 31.28 351.805 32.36 351.805 33.644C351.805 34.928 351.385 36.014 350.545 36.902ZM345.577 35.462C345.973 35.942 346.513 36.182 347.197 36.182C347.881 36.182 348.421 35.942 348.817 35.462C349.225 34.97 349.429 34.364 349.429 33.644C349.429 32.936 349.225 32.342 348.817 31.862C348.421 31.37 347.881 31.124 347.197 31.124C346.513 31.124 345.973 31.37 345.577 31.862C345.181 32.342 344.983 32.936 344.983 33.644C344.983 34.364 345.181 34.97 345.577 35.462ZM365.487 36.902C364.647 37.778 363.531 38.216 362.139 38.216C360.747 38.216 359.631 37.778 358.791 36.902C357.963 36.014 357.549 34.928 357.549 33.644C357.549 32.36 357.963 31.28 358.791 30.404C359.631 29.528 360.747 29.09 362.139 29.09C363.531 29.09 364.647 29.528 365.487 30.404C366.327 31.28 366.747 32.36 366.747 33.644C366.747 34.928 366.327 36.014 365.487 36.902ZM360.519 35.462C360.915 35.942 361.455 36.182 362.139 36.182C362.823 36.182 363.363 35.942 363.759 35.462C364.167 34.97 364.371 34.364 364.371 33.644C364.371 32.936 364.167 32.342 363.759 31.862C363.363 31.37 362.823 31.124 362.139 31.124C361.455 31.124 360.915 31.37 360.519 31.862C360.123 32.342 359.925 32.936 359.925 33.644C359.925 34.364 360.123 34.97 360.519 35.462ZM375.283 40.214V38H368.443V29.306H370.729V36.002H374.329V29.306H376.615V36.002H377.569V40.214H375.283ZM383.093 38.216C381.749 38.216 380.639 37.796 379.763 36.956C378.887 36.116 378.449 35.012 378.449 33.644C378.449 32.36 378.869 31.28 379.709 30.404C380.561 29.528 381.641 29.09 382.949 29.09C384.245 29.09 385.295 29.534 386.099 30.422C386.903 31.298 387.305 32.45 387.305 33.878V34.382H380.843C380.915 34.958 381.173 35.438 381.617 35.822C382.061 36.206 382.637 36.398 383.345 36.398C383.729 36.398 384.143 36.32 384.587 36.164C385.043 36.008 385.403 35.798 385.667 35.534L386.675 37.01C385.799 37.814 384.605 38.216 383.093 38.216ZM385.091 32.834C385.055 32.342 384.857 31.898 384.497 31.502C384.149 31.106 383.633 30.908 382.949 30.908C382.301 30.908 381.797 31.106 381.437 31.502C381.077 31.886 380.867 32.33 380.807 32.834H385.091ZM391.242 38H388.956V29.306H391.242V32.528H394.842V29.306H397.128V38H394.842V34.526H391.242V38ZM401.594 38H399.398V29.306H401.684V34.562L405.266 29.306H407.57V38H405.284V32.546L401.594 38ZM413.745 38H411.441V31.304H409.011V29.306H416.175V31.304H413.745V38ZM421.695 38.216C420.351 38.216 419.241 37.796 418.365 36.956C417.489 36.116 417.051 35.012 417.051 33.644C417.051 32.36 417.471 31.28 418.311 30.404C419.163 29.528 420.243 29.09 421.551 29.09C422.847 29.09 423.897 29.534 424.701 30.422C425.505 31.298 425.907 32.45 425.907 33.878V34.382H419.445C419.517 34.958 419.775 35.438 420.219 35.822C420.663 36.206 421.239 36.398 421.947 36.398C422.331 36.398 422.745 36.32 423.189 36.164C423.645 36.008 424.005 35.798 424.269 35.534L425.277 37.01C424.401 37.814 423.207 38.216 421.695 38.216ZM423.693 32.834C423.657 32.342 423.459 31.898 423.099 31.502C422.751 31.106 422.235 30.908 421.551 30.908C420.903 30.908 420.399 31.106 420.039 31.502C419.679 31.886 419.469 32.33 419.409 32.834H423.693ZM436.213 38.216C434.869 38.216 433.765 37.79 432.901 36.938C432.037 36.086 431.605 34.988 431.605 33.644C431.605 32.312 432.037 31.22 432.901 30.368C433.765 29.516 434.869 29.09 436.213 29.09C437.749 29.09 438.895 29.612 439.651 30.656L438.157 32.06C437.737 31.436 437.125 31.124 436.321 31.124C435.625 31.124 435.055 31.358 434.611 31.826C434.179 32.282 433.963 32.888 433.963 33.644C433.963 34.4 434.179 35.012 434.611 35.48C435.055 35.948 435.625 36.182 436.321 36.182C437.101 36.182 437.713 35.87 438.157 35.246L439.651 36.632C438.895 37.688 437.749 38.216 436.213 38.216ZM446.816 38H441.146V29.306H446.654C447.494 29.306 448.148 29.522 448.616 29.954C449.084 30.386 449.318 30.914 449.318 31.538C449.318 32.042 449.18 32.468 448.904 32.816C448.628 33.164 448.274 33.398 447.842 33.518C448.322 33.626 448.718 33.878 449.03 34.274C449.342 34.67 449.498 35.126 449.498 35.642C449.498 36.326 449.258 36.89 448.778 37.334C448.31 37.778 447.656 38 446.816 38ZM446.258 36.128C446.534 36.128 446.75 36.056 446.906 35.912C447.074 35.768 447.158 35.57 447.158 35.318C447.158 35.09 447.074 34.898 446.906 34.742C446.75 34.586 446.534 34.508 446.258 34.508H443.432V36.128H446.258ZM446.186 32.636C446.426 32.636 446.618 32.57 446.762 32.438C446.918 32.294 446.996 32.12 446.996 31.916C446.996 31.7 446.924 31.526 446.78 31.394C446.636 31.25 446.438 31.178 446.186 31.178H443.432V32.636H446.186ZM459.073 36.902C458.233 37.778 457.117 38.216 455.725 38.216C454.333 38.216 453.217 37.778 452.377 36.902C451.549 36.014 451.135 34.928 451.135 33.644C451.135 32.36 451.549 31.28 452.377 30.404C453.217 29.528 454.333 29.09 455.725 29.09C457.117 29.09 458.233 29.528 459.073 30.404C459.913 31.28 460.333 32.36 460.333 33.644C460.333 34.928 459.913 36.014 459.073 36.902ZM454.105 35.462C454.501 35.942 455.041 36.182 455.725 36.182C456.409 36.182 456.949 35.942 457.345 35.462C457.753 34.97 457.957 34.364 457.957 33.644C457.957 32.936 457.753 32.342 457.345 31.862C456.949 31.37 456.409 31.124 455.725 31.124C455.041 31.124 454.501 31.37 454.105 31.862C453.709 32.342 453.511 32.936 453.511 33.644C453.511 34.364 453.709 34.97 454.105 35.462ZM464.225 38H462.029V29.306H464.315V34.562L467.897 29.306H470.201V38H467.915V32.546L464.225 38ZM487.317 29.306H489.621V38H477.075V29.306H479.361V36.002H482.205V29.306H484.491V36.002H487.317V29.306ZM499.4 38H497.114V37.1C496.49 37.844 495.572 38.216 494.36 38.216C493.58 38.216 492.878 37.964 492.254 37.46C491.642 36.944 491.336 36.236 491.336 35.336C491.336 34.4 491.636 33.698 492.236 33.23C492.848 32.762 493.556 32.528 494.36 32.528C495.596 32.528 496.514 32.882 497.114 33.59V32.42C497.114 31.976 496.94 31.622 496.592 31.358C496.244 31.094 495.782 30.962 495.206 30.962C494.258 30.962 493.412 31.304 492.668 31.988L491.804 30.458C492.836 29.546 494.102 29.09 495.602 29.09C496.718 29.09 497.63 29.348 498.338 29.864C499.046 30.38 499.4 31.22 499.4 32.384V38ZM495.278 36.668C496.13 36.668 496.742 36.416 497.114 35.912V34.832C496.742 34.328 496.13 34.076 495.278 34.076C494.81 34.076 494.42 34.196 494.108 34.436C493.796 34.664 493.64 34.982 493.64 35.39C493.64 35.786 493.796 36.098 494.108 36.326C494.42 36.554 494.81 36.668 495.278 36.668ZM503.953 38H501.667V29.306H503.953V32.528H507.553V29.306H509.839V38H507.553V34.526H503.953V38ZM516.159 38.216C514.815 38.216 513.711 37.79 512.847 36.938C511.983 36.086 511.551 34.988 511.551 33.644C511.551 32.312 511.983 31.22 512.847 30.368C513.711 29.516 514.815 29.09 516.159 29.09C517.695 29.09 518.841 29.612 519.597 30.656L518.103 32.06C517.683 31.436 517.071 31.124 516.267 31.124C515.571 31.124 515.001 31.358 514.557 31.826C514.125 32.282 513.909 32.888 513.909 33.644C513.909 34.4 514.125 35.012 514.557 35.48C515.001 35.948 515.571 36.182 516.267 36.182C517.047 36.182 517.659 35.87 518.103 35.246L519.597 36.632C518.841 37.688 517.695 38.216 516.159 38.216ZM521.091 29.306H523.377V32.294H526.347C527.307 32.294 528.051 32.564 528.579 33.104C529.107 33.644 529.371 34.322 529.371 35.138C529.371 35.942 529.101 36.62 528.561 37.172C528.021 37.724 527.283 38 526.347 38H521.091V29.306ZM526.005 34.202H523.377V36.074H526.005C526.317 36.074 526.563 35.99 526.743 35.822C526.935 35.642 527.031 35.414 527.031 35.138C527.031 34.862 526.935 34.64 526.743 34.472C526.563 34.292 526.317 34.202 526.005 34.202ZM532.809 38H530.505V29.306H532.809V38ZM537.244 34.094H535.228L534.85 25.994H537.604L537.244 34.094ZM537.262 37.748C536.974 38.036 536.632 38.18 536.236 38.18C535.84 38.18 535.498 38.036 535.21 37.748C534.934 37.46 534.796 37.124 534.796 36.74C534.796 36.344 534.934 36.002 535.21 35.714C535.498 35.426 535.84 35.282 536.236 35.282C536.632 35.282 536.974 35.426 537.262 35.714C537.55 36.002 537.694 36.344 537.694 36.74C537.694 37.124 537.55 37.46 537.262 37.748Z" fill="#E55241"/>
<path d="M1176 24L1160 40M1176 40L1160 24L1176 40Z" stroke="#AFB2C4" stroke-width="2" stroke-linecap="round"/>
</svg>
