<svg width="14" height="18" viewBox="0 0 14 18" fill="none" xmlns="http://www.w3.org/2000/svg">
<path d="M9.5 3.375H2C1.66859 3.37537 1.35087 3.50719 1.11653 3.74153C0.882188 3.97587 0.750372 4.29359 0.75 4.625V16.5C0.749997 16.6148 0.781634 16.7275 0.841437 16.8255C0.901241 16.9235 0.986899 17.0032 1.08901 17.0557C1.19112 17.1083 1.30573 17.1317 1.42027 17.1234C1.5348 17.1151 1.64483 17.0753 1.73828 17.0086L5.74945 14.143L9.7618 17.0086C9.85524 17.0753 9.96527 17.115 10.0798 17.1233C10.1943 17.1316 10.3089 17.1082 10.411 17.0557C10.5131 17.0031 10.5988 16.9235 10.6586 16.8255C10.7184 16.7274 10.75 16.6148 10.75 16.5V4.625C10.7496 4.29359 10.6178 3.97587 10.3835 3.74153C10.1491 3.50719 9.83141 3.37537 9.5 3.375ZM9.5 15.2856L6.11266 12.8664C6.00665 12.7907 5.87964 12.75 5.74937 12.75C5.61911 12.75 5.4921 12.7907 5.38609 12.8664L2 15.2854V4.625H9.5V15.2856ZM13.25 2.125V14C13.25 14.1658 13.1842 14.3247 13.0669 14.4419C12.9497 14.5592 12.7908 14.625 12.625 14.625C12.4592 14.625 12.3003 14.5592 12.1831 14.4419C12.0658 14.3247 12 14.1658 12 14V2.125H3.875C3.70924 2.125 3.55027 2.05915 3.43306 1.94194C3.31585 1.82473 3.25 1.66576 3.25 1.5C3.25 1.33424 3.31585 1.17527 3.43306 1.05806C3.55027 0.940848 3.70924 0.875 3.875 0.875H12C12.3314 0.875372 12.6491 1.00719 12.8835 1.24153C13.1178 1.47587 13.2496 1.79359 13.25 2.125Z" fill="#3A3E48"/>
</svg>
