<svg width="40" height="40" viewBox="0 0 40 40" fill="none" xmlns="http://www.w3.org/2000/svg">
<rect width="40" height="40" rx="4" fill="#373737"/>
<path d="M29.9413 15.8941C29.9301 15.0525 29.7725 14.2194 29.4757 13.4318C29.2183 12.7676 28.8252 12.1643 28.3215 11.6605C27.8177 11.1568 27.2144 10.7637 26.5502 10.5063C25.7728 10.2145 24.9515 10.0567 24.1213 10.0396C23.0524 9.99185 22.7135 9.97852 20.0002 9.97852C17.2868 9.97852 16.939 9.97852 15.8779 10.0396C15.0481 10.0568 14.2272 10.2146 13.4502 10.5063C12.7858 10.7635 12.1824 11.1566 11.6786 11.6603C11.1749 12.1641 10.7818 12.7675 10.5246 13.4318C10.2322 14.2087 10.0747 15.0297 10.059 15.8596C10.0113 16.9296 9.99683 17.2685 9.99683 19.9818C9.99683 22.6952 9.99683 23.0419 10.059 24.1041C10.0757 24.9352 10.2324 25.7552 10.5246 26.5341C10.7822 27.1982 11.1756 27.8014 11.6795 28.3049C12.1835 28.8085 12.7869 29.2014 13.4513 29.4585C14.2262 29.7621 15.0472 29.9312 15.879 29.9585C16.949 30.0063 17.2879 30.0207 20.0013 30.0207C22.7146 30.0207 23.0624 30.0207 24.1235 29.9585C24.9537 29.9422 25.775 29.7847 26.5524 29.493C27.2165 29.2353 27.8196 28.842 28.3233 28.3383C28.827 27.8346 29.2202 27.2315 29.4779 26.5674C29.7702 25.7896 29.9268 24.9696 29.9435 24.1374C29.9913 23.0685 30.0057 22.7296 30.0057 20.0152C30.0035 17.3018 30.0035 16.9574 29.9413 15.8941ZM19.9935 25.113C17.1557 25.113 14.8568 22.8141 14.8568 19.9763C14.8568 17.1385 17.1557 14.8396 19.9935 14.8396C21.3558 14.8396 22.6624 15.3808 23.6257 16.3441C24.589 17.3074 25.1302 18.614 25.1302 19.9763C25.1302 21.3386 24.589 22.6452 23.6257 23.6085C22.6624 24.5718 21.3558 25.113 19.9935 25.113ZM25.3346 15.8474C25.1773 15.8476 25.0214 15.8167 24.8761 15.7565C24.7307 15.6964 24.5986 15.6082 24.4873 15.4969C24.3761 15.3857 24.2878 15.2536 24.2277 15.1082C24.1676 14.9628 24.1367 14.807 24.1368 14.6496C24.1368 14.4924 24.1678 14.3367 24.228 14.1915C24.2881 14.0462 24.3763 13.9142 24.4875 13.8031C24.5987 13.6919 24.7306 13.6037 24.8759 13.5435C25.0211 13.4834 25.1768 13.4524 25.334 13.4524C25.4913 13.4524 25.647 13.4834 25.7922 13.5435C25.9375 13.6037 26.0694 13.6919 26.1806 13.8031C26.2918 13.9142 26.38 14.0462 26.4401 14.1915C26.5003 14.3367 26.5313 14.4924 26.5313 14.6496C26.5313 15.3118 25.9957 15.8474 25.3346 15.8474Z" fill="white"/>
<path d="M19.9934 23.313C21.8362 23.313 23.3301 21.8191 23.3301 19.9763C23.3301 18.1335 21.8362 16.6396 19.9934 16.6396C18.1506 16.6396 16.6567 18.1335 16.6567 19.9763C16.6567 21.8191 18.1506 23.313 19.9934 23.313Z" fill="white"/>
</svg>
