<svg width="24" height="22" viewBox="0 0 24 22" fill="none" xmlns="http://www.w3.org/2000/svg">
<path d="M23.9952 6.35396C23.9952 6.35136 23.9955 6.34877 23.9955 6.34617C23.9955 3.19087 21.4377 0.633057 18.2824 0.633057C15.1271 0.633057 12.5693 3.19082 12.5693 6.34617C12.5693 9.50152 15.1274 12.0593 18.2824 12.0593C18.9309 12.0593 19.5516 11.9462 20.1325 11.7471C18.8471 19.1208 13.097 23.876 18.4273 19.9623C24.3378 15.6225 24.0018 6.52048 23.9952 6.35396Z" fill="#468E87"/>
<path d="M5.71311 12.0592C6.36158 12.0592 6.98231 11.9462 7.56341 11.747C6.27772 19.1207 0.527624 23.876 5.85795 19.9623C11.7685 15.6225 11.4326 6.52048 11.4259 6.35396C11.4259 6.35136 11.4262 6.34877 11.4262 6.34617C11.4262 3.19087 8.86841 0.633057 5.71311 0.633057C2.55776 0.633057 0 3.19082 0 6.34617C0 9.50152 2.55805 12.0592 5.71311 12.0592Z" fill="#468E87"/>
</svg>
