<svg width="44" height="44" viewBox="0 0 44 44" fill="none" xmlns="http://www.w3.org/2000/svg">
<rect width="44" height="44" rx="4" fill="#E55241" fill-opacity="0.1"/>
<path d="M31.3359 30.2109L26.7344 25.6094C27.875 24.2188 28.5625 22.4375 28.5625 20.4961C28.5625 16.043 24.9492 12.4297 20.4961 12.4297C16.0391 12.4297 12.4297 16.043 12.4297 20.4961C12.4297 24.9492 16.0391 28.5625 20.4961 28.5625C22.4375 28.5625 24.2148 27.8789 25.6055 26.7383L30.207 31.3359C30.5195 31.6484 31.0234 31.6484 31.3359 31.3359C31.6484 31.0273 31.6484 30.5195 31.3359 30.2109ZM20.4961 26.957C16.9297 26.957 14.0312 24.0586 14.0312 20.4961C14.0312 16.9336 16.9297 14.0312 20.4961 14.0312C24.0586 14.0312 26.9609 16.9336 26.9609 20.4961C26.9609 24.0586 24.0586 26.957 20.4961 26.957Z" fill="#E55241"/>
</svg>
