<svg width="40" height="40" viewBox="0 0 40 40" fill="none" xmlns="http://www.w3.org/2000/svg">
<rect width="40" height="40" rx="4" fill="#373737"/>
<path d="M30.6434 14.2833C30.7989 13.7666 30.6434 13.3877 29.9078 13.3877H27.4711C26.8511 13.3877 26.5678 13.7155 26.4123 14.0755C26.4123 14.0755 25.1734 17.0966 23.4178 19.0555C22.8511 19.6255 22.5922 19.8055 22.2834 19.8055C22.1289 19.8055 21.9045 19.6255 21.9045 19.1088V14.2833C21.9045 13.6633 21.7256 13.3877 21.2089 13.3877H17.38C16.9934 13.3877 16.76 13.6744 16.76 13.9477C16.76 14.5344 17.6378 14.6699 17.7278 16.3233V19.9099C17.7278 20.6955 17.5867 20.8388 17.2756 20.8388C16.45 20.8388 14.4411 17.8066 13.2489 14.3355C13.0167 13.661 12.7822 13.3888 12.16 13.3888H9.72447C9.02781 13.3888 8.88892 13.7166 8.88892 14.0766C8.88892 14.7233 9.71447 17.9233 12.7345 22.1555C14.7478 25.0455 17.5822 26.6121 20.1645 26.6121C21.7122 26.6121 21.9034 26.2644 21.9034 25.6644V23.4799C21.9034 22.7844 22.0511 22.6444 22.5411 22.6444C22.9011 22.6444 23.5211 22.8266 24.9667 24.2188C26.6178 25.8699 26.8911 26.611 27.8189 26.611H30.2545C30.95 26.611 31.2978 26.2633 31.0978 25.5766C30.8789 24.8933 30.09 23.8988 29.0434 22.7221C28.4745 22.051 27.6245 21.3288 27.3656 20.9677C27.0045 20.5021 27.1089 20.2966 27.3656 19.8833C27.3667 19.8844 30.3345 15.7044 30.6434 14.2833Z" fill="white"/>
</svg>
