<svg width="1920" height="751" viewBox="0 0 1920 751" fill="none" xmlns="http://www.w3.org/2000/svg">
    <rect width="1920" height="750" transform="matrix(-1 0 0 1 1920 0)" fill="#F4F4F4"/>
    <path d="M1759.98 0H1920V750H1259L1759.98 0Z" fill="#FF3737"/>
    <path d="M59.887 569.146L59.5335 569.5L59.887 569.854L71.1464 581.113L71.5 581.467L71.8535 581.113L83.113 569.854L83.4665 569.5L83.113 569.146L71.8535 557.887L71.5 557.533L71.1464 557.887L59.887 569.146ZM55.7071 569.5L71.5 553.707L87.2929 569.5L71.5 585.293L55.7071 569.5Z" fill="#E55241" stroke="#E55241"/>
    <path d="M1485.89 234.146L1485.53 234.5L1485.89 234.854L1497.15 246.113L1497.5 246.467L1497.85 246.113L1509.11 234.854L1509.47 234.5L1509.11 234.146L1497.85 222.887L1497.5 222.533L1497.15 222.887L1485.89 234.146ZM1481.71 234.5L1497.5 218.707L1513.29 234.5L1497.5 250.293L1481.71 234.5Z" fill="#E55241" stroke="#E55241"/>
    <path d="M258.925 749.784C258.162 749.784 257.5 749.12 257.5 748.409C257.5 747.697 258.162 747.034 258.925 747.034C259.688 747.034 260.35 747.697 260.35 748.409C260.35 749.12 259.688 749.784 258.925 749.784Z" fill="#E55241" stroke="#E55241"/>
    <path d="M258.925 733.925C258.162 733.925 257.5 733.261 257.5 732.55C257.5 731.734 258.14 731.174 258.925 731.174C259.688 731.174 260.35 731.838 260.35 732.55C260.35 733.261 259.688 733.925 258.925 733.925Z" fill="#E55241" stroke="#E55241"/>
    <path d="M258.925 718.065C258.162 718.065 257.5 717.401 257.5 716.69C257.5 715.875 258.14 715.315 258.925 715.315C259.688 715.315 260.35 715.979 260.35 716.69C260.35 717.401 259.688 718.065 258.925 718.065Z" fill="#E55241" stroke="#E55241"/>
    <path d="M258.925 702.208C258.162 702.208 257.5 701.544 257.5 700.832C257.5 700.016 258.14 699.456 258.925 699.456C259.688 699.456 260.35 700.12 260.35 700.832C260.35 701.544 259.688 702.208 258.925 702.208Z" fill="#E55241" stroke="#E55241"/>
    <path d="M258.925 686.346C258.162 686.346 257.5 685.683 257.5 684.972C257.5 684.157 258.14 683.597 258.925 683.597C259.688 683.597 260.35 684.26 260.35 684.972C260.35 685.683 259.688 686.346 258.925 686.346Z" fill="#E55241" stroke="#E55241"/>
    <path d="M258.925 670.362C258.162 670.362 257.5 669.699 257.5 668.987C257.5 668.276 258.162 667.612 258.925 667.612C259.688 667.612 260.35 668.276 260.35 668.987C260.35 669.699 259.688 670.362 258.925 670.362Z" fill="#E55241" stroke="#E55241"/>
    <path d="M258.925 654.503C258.162 654.503 257.5 653.84 257.5 653.128C257.5 652.417 258.162 651.753 258.925 651.753C259.688 651.753 260.35 652.417 260.35 653.128C260.35 653.84 259.688 654.503 258.925 654.503Z" fill="#E55241" stroke="#E55241"/>
    <path d="M258.925 638.644C258.162 638.644 257.5 637.98 257.5 637.269C257.5 636.557 258.162 635.894 258.925 635.894C259.688 635.894 260.35 636.557 260.35 637.269C260.35 637.98 259.688 638.644 258.925 638.644Z" fill="#E55241" stroke="#E55241"/>
    <path d="M258.925 622.788C258.162 622.788 257.5 622.124 257.5 621.411C257.5 620.699 258.162 620.035 258.925 620.035C259.688 620.035 260.35 620.699 260.35 621.411C260.35 622.124 259.688 622.788 258.925 622.788Z" fill="#E55241" stroke="#E55241"/>
    <path d="M258.925 606.925C258.162 606.925 257.5 606.262 257.5 605.55C257.5 604.839 258.162 604.175 258.925 604.175C259.688 604.175 260.35 604.839 260.35 605.55C260.35 606.262 259.688 606.925 258.925 606.925Z" fill="#E55241" stroke="#E55241"/>
    <path d="M258.925 591.066C258.162 591.066 257.5 590.403 257.5 589.691C257.5 588.98 258.162 588.316 258.925 588.316C259.688 588.316 260.35 588.98 260.35 589.691C260.35 590.403 259.688 591.066 258.925 591.066Z" fill="#E55241" stroke="#E55241"/>
    <path d="M258.925 575.207C258.162 575.207 257.5 574.543 257.5 573.832C257.5 573.12 258.162 572.457 258.925 572.457C259.688 572.457 260.35 573.12 260.35 573.832C260.35 574.543 259.688 575.207 258.925 575.207Z" fill="#E55241" stroke="#E55241"/>
    <path d="M258.925 559.349C258.162 559.349 257.5 558.685 257.5 557.973C257.5 557.261 258.162 556.598 258.925 556.598C259.688 556.598 260.35 557.261 260.35 557.973C260.35 558.685 259.688 559.349 258.925 559.349Z" fill="#E55241" stroke="#E55241"/>
    <path d="M258.925 540.738C259.688 540.738 260.35 541.402 260.35 542.113C260.35 542.825 259.688 543.488 258.925 543.488C258.162 543.488 257.5 542.825 257.5 542.113C257.5 541.402 258.162 540.738 258.925 540.738Z" fill="#E55241" stroke="#E55241"/>
    <path d="M272.915 749.784C272.152 749.784 271.49 749.12 271.49 748.409C271.49 747.697 272.152 747.034 272.915 747.034C273.678 747.034 274.34 747.697 274.34 748.409C274.34 749.12 273.678 749.784 272.915 749.784Z" fill="#E55241" stroke="#E55241"/>
    <path d="M272.915 733.925C272.152 733.925 271.49 733.261 271.49 732.55C271.49 731.734 272.129 731.174 272.915 731.174C273.678 731.174 274.34 731.838 274.34 732.55C274.34 733.261 273.678 733.925 272.915 733.925Z" fill="#E55241" stroke="#E55241"/>
    <path d="M272.915 718.065C272.152 718.065 271.49 717.401 271.49 716.69C271.49 715.875 272.129 715.315 272.915 715.315C273.678 715.315 274.34 715.979 274.34 716.69C274.34 717.401 273.678 718.065 272.915 718.065Z" fill="#E55241" stroke="#E55241"/>
    <path d="M272.915 702.208C272.152 702.208 271.49 701.544 271.49 700.832C271.49 700.016 272.13 699.456 272.915 699.456C273.678 699.456 274.34 700.12 274.34 700.832C274.34 701.544 273.678 702.208 272.915 702.208Z" fill="#E55241" stroke="#E55241"/>
    <path d="M272.915 686.346C272.152 686.346 271.49 685.683 271.49 684.972C271.49 684.157 272.129 683.597 272.915 683.597C273.678 683.597 274.34 684.26 274.34 684.972C274.34 685.683 273.678 686.346 272.915 686.346Z" fill="#E55241" stroke="#E55241"/>
    <path d="M272.915 670.362C272.152 670.362 271.49 669.699 271.49 668.987C271.49 668.276 272.152 667.612 272.915 667.612C273.678 667.612 274.34 668.276 274.34 668.987C274.34 669.699 273.678 670.362 272.915 670.362Z" fill="#E55241" stroke="#E55241"/>
    <path d="M272.915 654.503C272.152 654.503 271.49 653.84 271.49 653.128C271.49 652.417 272.152 651.753 272.915 651.753C273.678 651.753 274.34 652.417 274.34 653.128C274.34 653.84 273.678 654.503 272.915 654.503Z" fill="#E55241" stroke="#E55241"/>
    <path d="M272.915 638.644C272.152 638.644 271.49 637.98 271.49 637.269C271.49 636.557 272.152 635.894 272.915 635.894C273.678 635.894 274.34 636.557 274.34 637.269C274.34 637.98 273.678 638.644 272.915 638.644Z" fill="#E55241" stroke="#E55241"/>
    <path d="M272.915 622.788C272.152 622.788 271.49 622.124 271.49 621.411C271.49 620.699 272.152 620.035 272.915 620.035C273.678 620.035 274.34 620.699 274.34 621.411C274.34 622.124 273.678 622.788 272.915 622.788Z" fill="#E55241" stroke="#E55241"/>
    <path d="M272.915 606.925C272.152 606.925 271.49 606.262 271.49 605.55C271.49 604.839 272.152 604.175 272.915 604.175C273.678 604.175 274.34 604.839 274.34 605.55C274.34 606.262 273.678 606.925 272.915 606.925Z" fill="#E55241" stroke="#E55241"/>
    <path d="M272.915 591.066C272.152 591.066 271.49 590.403 271.49 589.691C271.49 588.98 272.152 588.316 272.915 588.316C273.678 588.316 274.34 588.98 274.34 589.691C274.34 590.403 273.678 591.066 272.915 591.066Z" fill="#E55241" stroke="#E55241"/>
    <path d="M272.915 575.207C272.152 575.207 271.49 574.543 271.49 573.832C271.49 573.12 272.152 572.457 272.915 572.457C273.678 572.457 274.34 573.12 274.34 573.832C274.34 574.543 273.678 575.207 272.915 575.207Z" fill="#E55241" stroke="#E55241"/>
    <path d="M272.915 559.349C272.152 559.349 271.49 558.685 271.49 557.973C271.49 557.261 272.152 556.598 272.915 556.598C273.678 556.598 274.34 557.261 274.34 557.973C274.34 558.685 273.678 559.349 272.915 559.349Z" fill="#E55241" stroke="#E55241"/>
    <path d="M272.915 543.488C272.152 543.488 271.49 542.825 271.49 542.113C271.49 541.402 272.152 540.738 272.915 540.738C273.678 540.738 274.34 541.402 274.34 542.113C274.34 542.825 273.678 543.488 272.915 543.488Z" fill="#E55241" stroke="#E55241"/>
    <path d="M286.776 749.784C286.013 749.784 285.351 749.12 285.351 748.409C285.351 747.697 286.013 747.034 286.776 747.034C287.539 747.034 288.201 747.697 288.201 748.409C288.201 749.12 287.539 749.784 286.776 749.784Z" fill="#E55241" stroke="#E55241"/>
    <path d="M286.776 733.925C286.013 733.925 285.351 733.261 285.351 732.55C285.351 731.734 285.991 731.174 286.776 731.174C287.539 731.174 288.201 731.838 288.201 732.55C288.201 733.261 287.539 733.925 286.776 733.925Z" fill="#E55241" stroke="#E55241"/>
    <path d="M286.776 718.065C286.013 718.065 285.351 717.401 285.351 716.69C285.351 715.875 285.991 715.315 286.776 715.315C287.539 715.315 288.201 715.979 288.201 716.69C288.201 717.401 287.539 718.065 286.776 718.065Z" fill="#E55241" stroke="#E55241"/>
    <path d="M286.776 702.208C286.013 702.208 285.351 701.544 285.351 700.832C285.351 700.016 285.991 699.456 286.776 699.456C287.539 699.456 288.201 700.12 288.201 700.832C288.201 701.544 287.539 702.208 286.776 702.208Z" fill="#E55241" stroke="#E55241"/>
    <path d="M286.776 686.346C286.013 686.346 285.351 685.683 285.351 684.972C285.351 684.157 285.991 683.597 286.776 683.597C287.539 683.597 288.201 684.26 288.201 684.972C288.201 685.683 287.539 686.346 286.776 686.346Z" fill="#E55241" stroke="#E55241"/>
    <path d="M286.776 670.362C286.013 670.362 285.351 669.699 285.351 668.987C285.351 668.276 286.013 667.612 286.776 667.612C287.539 667.612 288.201 668.276 288.201 668.987C288.201 669.699 287.539 670.362 286.776 670.362Z" fill="#E55241" stroke="#E55241"/>
    <path d="M286.776 654.503C286.013 654.503 285.351 653.84 285.351 653.128C285.351 652.417 286.013 651.753 286.776 651.753C287.539 651.753 288.201 652.417 288.201 653.128C288.201 653.84 287.539 654.503 286.776 654.503Z" fill="#E55241" stroke="#E55241"/>
    <path d="M286.776 638.644C286.013 638.644 285.351 637.98 285.351 637.269C285.351 636.557 286.013 635.894 286.776 635.894C287.539 635.894 288.201 636.557 288.201 637.269C288.201 637.98 287.539 638.644 286.776 638.644Z" fill="#E55241" stroke="#E55241"/>
    <path d="M286.776 622.788C286.014 622.788 285.351 622.124 285.351 621.411C285.351 620.699 286.014 620.035 286.776 620.035C287.539 620.035 288.201 620.699 288.201 621.411C288.201 622.124 287.539 622.788 286.776 622.788Z" fill="#E55241" stroke="#E55241"/>
    <path d="M286.776 606.925C286.013 606.925 285.351 606.262 285.351 605.55C285.351 604.839 286.013 604.175 286.776 604.175C287.539 604.175 288.201 604.839 288.201 605.55C288.201 606.262 287.539 606.925 286.776 606.925Z" fill="#E55241" stroke="#E55241"/>
    <path d="M286.776 591.066C286.013 591.066 285.351 590.403 285.351 589.691C285.351 588.98 286.013 588.316 286.776 588.316C287.539 588.316 288.201 588.98 288.201 589.691C288.201 590.403 287.539 591.066 286.776 591.066Z" fill="#E55241" stroke="#E55241"/>
    <path d="M286.776 575.207C286.013 575.207 285.351 574.543 285.351 573.832C285.351 573.12 286.013 572.457 286.776 572.457C287.539 572.457 288.201 573.12 288.201 573.832C288.201 574.543 287.539 575.207 286.776 575.207Z" fill="#E55241" stroke="#E55241"/>
    <path d="M286.776 559.349C286.013 559.349 285.351 558.685 285.351 557.973C285.351 557.261 286.013 556.598 286.776 556.598C287.539 556.598 288.201 557.261 288.201 557.973C288.201 558.685 287.539 559.349 286.776 559.349Z" fill="#E55241" stroke="#E55241"/>
    <path d="M286.776 543.488C286.013 543.488 285.351 542.825 285.351 542.113C285.351 541.402 286.013 540.738 286.776 540.738C287.539 540.738 288.201 541.402 288.201 542.113C288.201 542.825 287.539 543.488 286.776 543.488Z" fill="#E55241" stroke="#E55241"/>
    <path d="M300.766 749.784C300.003 749.784 299.341 749.12 299.341 748.409C299.341 747.697 300.003 747.034 300.766 747.034C301.529 747.034 302.191 747.697 302.191 748.409C302.191 749.12 301.529 749.784 300.766 749.784Z" fill="#E55241" stroke="#E55241"/>
    <path d="M300.766 733.925C300.003 733.925 299.341 733.261 299.341 732.55C299.341 731.734 299.981 731.174 300.766 731.174C301.529 731.174 302.191 731.838 302.191 732.55C302.191 733.261 301.529 733.925 300.766 733.925Z" fill="#E55241" stroke="#E55241"/>
    <path d="M300.766 718.065C300.003 718.065 299.341 717.401 299.341 716.69C299.341 715.875 299.981 715.315 300.766 715.315C301.529 715.315 302.191 715.979 302.191 716.69C302.191 717.401 301.529 718.065 300.766 718.065Z" fill="#E55241" stroke="#E55241"/>
    <path d="M300.766 702.208C300.003 702.208 299.341 701.544 299.341 700.832C299.341 700.016 299.981 699.456 300.766 699.456C301.529 699.456 302.191 700.12 302.191 700.832C302.191 701.544 301.529 702.208 300.766 702.208Z" fill="#E55241" stroke="#E55241"/>
    <path d="M300.766 686.346C300.003 686.346 299.341 685.683 299.341 684.972C299.341 684.157 299.981 683.597 300.766 683.597C301.529 683.597 302.191 684.26 302.191 684.972C302.191 685.683 301.529 686.346 300.766 686.346Z" fill="#E55241" stroke="#E55241"/>
    <path d="M300.766 670.362C300.003 670.362 299.341 669.699 299.341 668.987C299.341 668.276 300.003 667.612 300.766 667.612C301.529 667.612 302.191 668.276 302.191 668.987C302.191 669.699 301.529 670.362 300.766 670.362Z" fill="#E55241" stroke="#E55241"/>
    <path d="M300.766 654.503C300.003 654.503 299.341 653.84 299.341 653.128C299.341 652.417 300.003 651.753 300.766 651.753C301.529 651.753 302.191 652.417 302.191 653.128C302.191 653.84 301.529 654.503 300.766 654.503Z" fill="#E55241" stroke="#E55241"/>
    <path d="M300.766 638.644C300.003 638.644 299.341 637.98 299.341 637.269C299.341 636.557 300.003 635.894 300.766 635.894C301.529 635.894 302.191 636.557 302.191 637.269C302.191 637.98 301.529 638.644 300.766 638.644Z" fill="#E55241" stroke="#E55241"/>
    <path d="M300.766 622.788C300.004 622.788 299.341 622.124 299.341 621.411C299.341 620.699 300.004 620.035 300.766 620.035C301.529 620.035 302.191 620.699 302.191 621.411C302.191 622.124 301.529 622.788 300.766 622.788Z" fill="#E55241" stroke="#E55241"/>
    <path d="M300.766 606.925C300.003 606.925 299.341 606.262 299.341 605.55C299.341 604.839 300.003 604.175 300.766 604.175C301.529 604.175 302.191 604.839 302.191 605.55C302.191 606.262 301.529 606.925 300.766 606.925Z" fill="#E55241" stroke="#E55241"/>
    <path d="M300.766 591.066C300.003 591.066 299.341 590.403 299.341 589.691C299.341 588.98 300.003 588.316 300.766 588.316C301.529 588.316 302.191 588.98 302.191 589.691C302.191 590.403 301.529 591.066 300.766 591.066Z" fill="#E55241" stroke="#E55241"/>
    <path d="M300.766 575.207C300.003 575.207 299.341 574.543 299.341 573.832C299.341 573.12 300.003 572.457 300.766 572.457C301.529 572.457 302.191 573.12 302.191 573.832C302.191 574.543 301.529 575.207 300.766 575.207Z" fill="#E55241" stroke="#E55241"/>
    <path d="M300.766 559.349C300.003 559.349 299.341 558.685 299.341 557.973C299.341 557.261 300.003 556.598 300.766 556.598C301.529 556.598 302.191 557.261 302.191 557.973C302.191 558.685 301.529 559.349 300.766 559.349Z" fill="#E55241" stroke="#E55241"/>
    <path d="M300.766 543.488C300.003 543.488 299.341 542.825 299.341 542.113C299.341 541.402 300.003 540.738 300.766 540.738C301.529 540.738 302.191 541.402 302.191 542.113C302.191 542.825 301.529 543.488 300.766 543.488Z" fill="#E55241" stroke="#E55241"/>
    <path d="M1740.5 561.662C1740.5 560.356 1741.54 559.5 1742.57 559.5C1743.52 559.5 1744.39 560.283 1744.63 561.702C1744.63 562.373 1744.41 562.894 1744.07 563.245C1743.72 563.602 1743.22 563.825 1742.57 563.825C1741.35 563.825 1740.5 562.768 1740.5 561.662Z" fill="white" stroke="white"/>
    <path d="M1761.81 561.662C1761.81 560.356 1762.85 559.5 1763.87 559.5C1764.82 559.5 1765.7 560.283 1765.94 561.701C1765.92 562.985 1764.88 563.825 1763.87 563.825C1762.66 563.825 1761.81 562.768 1761.81 561.662Z" fill="white" stroke="white"/>
    <path d="M1782.85 561.662C1782.85 560.356 1783.9 559.5 1784.92 559.5C1785.57 559.5 1786.08 559.722 1786.42 560.079C1786.77 560.438 1786.99 560.972 1786.99 561.662C1786.99 562.968 1785.94 563.825 1784.92 563.825C1783.71 563.825 1782.85 562.768 1782.85 561.662Z" fill="white" stroke="white"/>
    <path d="M1804.16 561.662C1804.16 560.356 1805.2 559.5 1806.23 559.5C1806.88 559.5 1807.38 559.722 1807.73 560.079C1808.07 560.438 1808.29 560.972 1808.29 561.662C1808.29 562.968 1807.25 563.825 1806.23 563.825C1805.01 563.825 1804.16 562.768 1804.16 561.662Z" fill="white" stroke="white"/>
    <path d="M1825.47 561.662C1825.47 560.356 1826.51 559.5 1827.53 559.5C1828.18 559.5 1828.69 559.722 1829.03 560.079C1829.38 560.438 1829.6 560.972 1829.6 561.662C1829.6 562.968 1828.55 563.825 1827.53 563.825C1826.32 563.825 1825.47 562.768 1825.47 561.662Z" fill="white" stroke="white"/>
    <path d="M1846.77 561.662C1846.77 560.356 1847.81 559.5 1848.84 559.5C1849.49 559.5 1849.99 559.722 1850.34 560.079C1850.68 560.438 1850.9 560.972 1850.9 561.662C1850.9 562.968 1849.86 563.825 1848.84 563.825C1847.62 563.825 1846.77 562.768 1846.77 561.662Z" fill="white" stroke="white"/>
    <path d="M1868.08 561.662C1868.08 560.356 1869.12 559.5 1870.14 559.5C1871.17 559.5 1872.21 560.356 1872.21 561.662C1872.21 562.968 1871.17 563.825 1870.14 563.825C1868.93 563.825 1868.08 562.768 1868.08 561.662Z" fill="white" stroke="white"/>
    <path d="M1889.38 561.662C1889.38 560.356 1890.43 559.5 1891.45 559.5C1892.47 559.5 1893.52 560.356 1893.52 561.662C1893.52 562.968 1892.47 563.825 1891.45 563.825C1890.23 563.825 1889.38 562.768 1889.38 561.662Z" fill="white" stroke="white"/>
    <path d="M1910.69 561.662C1910.69 560.356 1911.73 559.5 1912.75 559.5C1913.78 559.5 1914.82 560.356 1914.82 561.662C1914.82 562.968 1913.78 563.825 1912.75 563.825C1911.54 563.825 1910.69 562.768 1910.69 561.662Z" fill="white" stroke="white"/>
    <path d="M1740.5 580.283C1740.5 578.977 1741.54 578.121 1742.57 578.121C1743.03 578.121 1743.48 578.359 1743.86 578.787C1744.24 579.204 1744.52 579.765 1744.63 580.331C1744.62 580.998 1744.41 581.516 1744.07 581.866C1743.72 582.223 1743.22 582.445 1742.57 582.445C1741.35 582.445 1740.5 581.389 1740.5 580.283Z" fill="white" stroke="white"/>
    <path d="M1761.81 580.283C1761.81 578.977 1762.85 578.121 1763.87 578.121C1764.33 578.121 1764.78 578.359 1765.17 578.787C1765.54 579.204 1765.82 579.765 1765.94 580.33C1765.91 581.61 1764.88 582.445 1763.87 582.445C1762.66 582.445 1761.81 581.389 1761.81 580.283Z" fill="white" stroke="white"/>
    <path d="M1782.85 580.283C1782.85 578.977 1783.9 578.121 1784.92 578.121C1786.14 578.121 1786.99 579.177 1786.99 580.283C1786.99 581.589 1785.94 582.445 1784.92 582.445C1783.71 582.445 1782.85 581.389 1782.85 580.283Z" fill="white" stroke="white"/>
    <path d="M1804.16 580.283C1804.16 578.977 1805.2 578.121 1806.23 578.121C1807.44 578.121 1808.29 579.177 1808.29 580.283C1808.29 581.589 1807.25 582.445 1806.23 582.445C1805.01 582.445 1804.16 581.389 1804.16 580.283Z" fill="white" stroke="white"/>
    <path d="M1825.47 580.283C1825.47 578.977 1826.51 578.121 1827.53 578.121C1828.75 578.121 1829.6 579.177 1829.6 580.283C1829.6 581.589 1828.55 582.445 1827.53 582.445C1826.32 582.445 1825.47 581.389 1825.47 580.283Z" fill="white" stroke="white"/>
    <path d="M1846.77 580.283C1846.77 578.977 1847.81 578.121 1848.84 578.121C1850.05 578.121 1850.9 579.177 1850.9 580.283C1850.9 581.589 1849.86 582.445 1848.84 582.445C1847.62 582.445 1846.77 581.389 1846.77 580.283Z" fill="white" stroke="white"/>
    <path d="M1868.08 580.283C1868.08 578.977 1869.12 578.121 1870.14 578.121C1870.62 578.121 1871.13 578.371 1871.55 578.8C1871.96 579.227 1872.21 579.774 1872.21 580.283C1872.21 581.589 1871.17 582.445 1870.14 582.445C1868.93 582.445 1868.08 581.389 1868.08 580.283Z" fill="white" stroke="white"/>
    <path d="M1889.38 580.283C1889.38 578.977 1890.43 578.121 1891.45 578.121C1891.92 578.121 1892.44 578.371 1892.85 578.8C1893.27 579.227 1893.52 579.774 1893.52 580.283C1893.52 581.589 1892.47 582.445 1891.45 582.445C1890.23 582.445 1889.38 581.389 1889.38 580.283Z" fill="white" stroke="white"/>
    <path d="M1910.69 580.283C1910.69 578.977 1911.73 578.121 1912.75 578.121C1913.23 578.121 1913.75 578.371 1914.16 578.8C1914.57 579.227 1914.82 579.774 1914.82 580.283C1914.82 581.589 1913.78 582.445 1912.75 582.445C1911.54 582.445 1910.69 581.389 1910.69 580.283Z" fill="white" stroke="white"/>
    <path d="M1744.63 599.175C1744.63 600.387 1743.69 601.337 1742.57 601.337C1741.44 601.337 1740.5 600.387 1740.5 599.175C1740.5 597.963 1741.44 597.013 1742.57 597.013C1743.69 597.013 1744.63 597.963 1744.63 599.175Z" fill="white" stroke="white"/>
    <path d="M1765.94 599.175C1765.94 600.387 1765 601.337 1763.87 601.337C1762.75 601.337 1761.81 600.387 1761.81 599.175C1761.81 597.963 1762.75 597.013 1763.87 597.013C1765 597.013 1765.94 597.963 1765.94 599.175Z" fill="white" stroke="white"/>
    <path d="M1782.85 599.175C1782.85 597.869 1783.9 597.013 1784.92 597.013C1785.57 597.013 1786.08 597.235 1786.42 597.592C1786.77 597.95 1786.99 598.485 1786.99 599.175C1786.99 600.481 1785.94 601.337 1784.92 601.337C1784.27 601.337 1783.76 601.115 1783.42 600.758C1783.07 600.4 1782.85 599.865 1782.85 599.175Z" fill="white" stroke="white"/>
    <path d="M1804.16 599.175C1804.16 597.869 1805.2 597.013 1806.23 597.013C1806.88 597.013 1807.38 597.235 1807.73 597.592C1808.07 597.95 1808.29 598.485 1808.29 599.175C1808.29 600.481 1807.25 601.337 1806.23 601.337C1805.58 601.337 1805.07 601.115 1804.73 600.758C1804.38 600.4 1804.16 599.865 1804.16 599.175Z" fill="white" stroke="white"/>
    <path d="M1825.47 599.175C1825.47 597.869 1826.51 597.013 1827.53 597.013C1828.18 597.013 1828.69 597.235 1829.03 597.592C1829.38 597.95 1829.6 598.485 1829.6 599.175C1829.6 600.481 1828.55 601.337 1827.53 601.337C1826.88 601.337 1826.38 601.115 1826.03 600.758C1825.69 600.4 1825.47 599.865 1825.47 599.175Z" fill="white" stroke="white"/>
    <path d="M1846.77 599.175C1846.77 597.869 1847.81 597.013 1848.84 597.013C1849.49 597.013 1849.99 597.235 1850.34 597.592C1850.68 597.95 1850.9 598.485 1850.9 599.175C1850.9 600.481 1849.86 601.337 1848.84 601.337C1848.19 601.337 1847.68 601.115 1847.34 600.758C1846.99 600.4 1846.77 599.865 1846.77 599.175Z" fill="white" stroke="white"/>
    <path d="M1868.08 599.175C1868.08 597.869 1869.12 597.013 1870.14 597.013C1871.17 597.013 1872.21 597.869 1872.21 599.175C1872.21 600.481 1871.17 601.337 1870.14 601.337C1869.49 601.337 1868.99 601.115 1868.64 600.758C1868.3 600.4 1868.08 599.865 1868.08 599.175Z" fill="white" stroke="white"/>
    <path d="M1889.38 599.175C1889.38 597.869 1890.43 597.013 1891.45 597.013C1892.47 597.013 1893.52 597.869 1893.52 599.175C1893.52 600.481 1892.47 601.337 1891.45 601.337C1890.8 601.337 1890.29 601.115 1889.95 600.758C1889.6 600.4 1889.38 599.865 1889.38 599.175Z" fill="white" stroke="white"/>
    <path d="M1910.69 599.175C1910.69 597.869 1911.73 597.013 1912.75 597.013C1913.78 597.013 1914.82 597.869 1914.82 599.175C1914.82 600.481 1913.78 601.337 1912.75 601.337C1912.1 601.337 1911.6 601.115 1911.25 600.758C1910.91 600.4 1910.69 599.865 1910.69 599.175Z" fill="white" stroke="white"/>
    <path d="M1744.63 617.8C1744.63 619.012 1743.69 619.963 1742.57 619.963C1741.44 619.963 1740.5 619.012 1740.5 617.8C1740.5 616.589 1741.44 615.638 1742.57 615.638C1743.69 615.638 1744.63 616.589 1744.63 617.8Z" fill="white" stroke="white"/>
    <path d="M1765.94 617.8C1765.94 619.012 1765 619.963 1763.87 619.963C1762.75 619.963 1761.81 619.012 1761.81 617.8C1761.81 616.589 1762.75 615.638 1763.87 615.638C1765 615.638 1765.94 616.589 1765.94 617.8Z" fill="white" stroke="white"/>
    <path d="M1782.85 618.067C1782.85 616.761 1783.9 615.905 1784.92 615.905C1785.57 615.905 1786.08 616.127 1786.42 616.484C1786.77 616.842 1786.99 617.376 1786.99 618.067C1786.99 619.373 1785.94 620.229 1784.92 620.229C1783.71 620.229 1782.85 619.173 1782.85 618.067Z" fill="white" stroke="white"/>
    <path d="M1804.16 618.067C1804.16 616.761 1805.2 615.905 1806.23 615.905C1806.88 615.905 1807.38 616.127 1807.73 616.484C1808.07 616.842 1808.29 617.376 1808.29 618.067C1808.29 619.373 1807.25 620.229 1806.23 620.229C1805.01 620.229 1804.16 619.173 1804.16 618.067Z" fill="white" stroke="white"/>
    <path d="M1825.47 618.067C1825.47 616.761 1826.51 615.905 1827.53 615.905C1828.18 615.905 1828.69 616.127 1829.03 616.484C1829.38 616.842 1829.6 617.376 1829.6 618.067C1829.6 619.373 1828.55 620.229 1827.53 620.229C1826.32 620.229 1825.47 619.173 1825.47 618.067Z" fill="white" stroke="white"/>
    <path d="M1846.77 618.067C1846.77 616.761 1847.81 615.905 1848.84 615.905C1849.49 615.905 1849.99 616.127 1850.34 616.484C1850.68 616.842 1850.9 617.376 1850.9 618.067C1850.9 619.373 1849.86 620.229 1848.84 620.229C1847.62 620.229 1846.77 619.173 1846.77 618.067Z" fill="white" stroke="white"/>
    <path d="M1868.08 618.067C1868.08 616.761 1869.12 615.905 1870.14 615.905C1871.17 615.905 1872.21 616.761 1872.21 618.067C1872.21 619.373 1871.17 620.229 1870.14 620.229C1868.93 620.229 1868.08 619.173 1868.08 618.067Z" fill="white" stroke="white"/>
    <path d="M1889.38 618.067C1889.38 616.761 1890.43 615.905 1891.45 615.905C1892.47 615.905 1893.52 616.761 1893.52 618.067C1893.52 619.373 1892.47 620.229 1891.45 620.229C1890.23 620.229 1889.38 619.173 1889.38 618.067Z" fill="white" stroke="white"/>
    <path d="M1910.69 618.067C1910.69 616.761 1911.73 615.905 1912.75 615.905C1913.78 615.905 1914.82 616.761 1914.82 618.067C1914.82 619.373 1913.78 620.229 1912.75 620.229C1911.54 620.229 1910.69 619.173 1910.69 618.067Z" fill="white" stroke="white"/>
</svg>
