<svg width="171" height="25" viewBox="0 0 171 25" fill="none" xmlns="http://www.w3.org/2000/svg">
<rect width="171" height="25" rx="4" fill="#E55241" fill-opacity="0.7"/>
<path d="M11.84 16H10.71V9.33H11.88V13.96L15.29 9.33H16.49V16H15.32V11.24L11.84 16ZM24.8373 16H23.6673V11.05L21.6173 16H21.1173L19.0773 11.05V16H17.9073V9.33H19.5573L21.3673 13.72L23.1873 9.33H24.8373V16ZM33.1869 16H32.0169V11.05L29.9669 16H29.4669L27.4269 11.05V16H26.2569V9.33H27.9069L29.7169 13.72L31.5369 9.33H33.1869V16ZM35.7365 16H34.6065V9.33H35.7765V13.96L39.1865 9.33H40.3865V16H39.2165V11.24L35.7365 16ZM42.9738 16H41.8038V9.33H46.3737V10.36H42.9738V16ZM48.589 16H47.419V9.33H50.349C51.0223 9.33 51.5523 9.53 51.939 9.93C52.3323 10.33 52.529 10.8267 52.529 11.42C52.529 12.0067 52.3323 12.5033 51.939 12.91C51.5523 13.31 51.0223 13.51 50.349 13.51H48.589V16ZM50.189 12.48C50.5223 12.48 50.7957 12.3833 51.009 12.19C51.2223 11.9967 51.329 11.74 51.329 11.42C51.329 11.1 51.2223 10.8433 51.009 10.65C50.7957 10.4567 50.5223 10.36 50.189 10.36H48.589V12.48H50.189ZM58.751 16H57.421L56.931 14.72H53.871L53.381 16H52.051L54.671 9.33H56.131L58.751 16ZM56.601 13.69L55.401 10.51L54.201 13.69H56.601ZM64.7395 17.23V16H59.4795V9.33H60.6495V14.97H64.1195V9.33H65.2895V14.97H65.9095V17.23H64.7395ZM67.9338 16H66.8038V9.33H67.9738V13.96L71.3838 9.33H72.5838V16H71.4138V11.24L67.9338 16ZM79.561 15.15C78.921 15.7967 78.1043 16.12 77.111 16.12C76.1177 16.12 75.301 15.7967 74.661 15.15C74.021 14.4967 73.701 13.67 73.701 12.67C73.701 11.67 74.021 10.8467 74.661 10.2C75.301 9.54667 76.1177 9.22 77.111 9.22C78.1043 9.22 78.921 9.54667 79.561 10.2C80.201 10.8467 80.521 11.67 80.521 12.67C80.521 13.67 80.201 14.4967 79.561 15.15ZM77.111 15.08C77.771 15.08 78.3043 14.8533 78.711 14.4C79.1177 13.94 79.321 13.3633 79.321 12.67C79.321 11.97 79.1177 11.3933 78.711 10.94C78.3043 10.4867 77.771 10.26 77.111 10.26C76.4443 10.26 75.9077 10.4867 75.501 10.94C75.101 11.3933 74.901 11.97 74.901 12.67C74.901 13.37 75.101 13.9467 75.501 14.4C75.9077 14.8533 76.4443 15.08 77.111 15.08ZM87.4575 16H86.2875V13.09H82.8175V16H81.6475V9.33H82.8175V12.06H86.2875V9.33H87.4575V16ZM94.6841 16H93.5141V13.09H90.0441V16H88.8741V9.33H90.0441V12.06H93.5141V9.33H94.6841V16ZM96.1006 9.33H97.2706V11.82H99.0306C99.704 11.82 100.234 12.0233 100.621 12.43C101.014 12.83 101.211 13.3233 101.211 13.91C101.211 14.5033 101.014 15 100.621 15.4C100.234 15.8 99.704 16 99.0306 16H96.1006V9.33ZM98.8706 12.85H97.2706V14.97H98.8706C99.204 14.97 99.4773 14.8733 99.6906 14.68C99.904 14.4867 100.011 14.23 100.011 13.91C100.011 13.59 99.904 13.3333 99.6906 13.14C99.4773 12.9467 99.204 12.85 98.8706 12.85ZM103.001 16H101.831V9.33H103.001V16ZM108.991 16H104.421V9.33H108.991V10.36H105.591V12.09H108.921V13.12H105.591V14.97H108.991V16ZM118.571 16H117.401V13.09H113.931V16H112.761V9.33H113.931V12.06H117.401V9.33H118.571V16ZM125.547 15.15C124.907 15.7967 124.091 16.12 123.097 16.12C122.104 16.12 121.287 15.7967 120.647 15.15C120.007 14.4967 119.687 13.67 119.687 12.67C119.687 11.67 120.007 10.8467 120.647 10.2C121.287 9.54667 122.104 9.22 123.097 9.22C124.091 9.22 124.907 9.54667 125.547 10.2C126.187 10.8467 126.507 11.67 126.507 12.67C126.507 13.67 126.187 14.4967 125.547 15.15ZM123.097 15.08C123.757 15.08 124.291 14.8533 124.697 14.4C125.104 13.94 125.307 13.3633 125.307 12.67C125.307 11.97 125.104 11.3933 124.697 10.94C124.291 10.4867 123.757 10.26 123.097 10.26C122.431 10.26 121.894 10.4867 121.487 10.94C121.087 11.3933 120.887 11.97 120.887 12.67C120.887 13.37 121.087 13.9467 121.487 14.4C121.894 14.8533 122.431 15.08 123.097 15.08ZM131.004 16H127.634V9.33H130.914C131.507 9.33 131.97 9.49333 132.304 9.82C132.644 10.14 132.814 10.5433 132.814 11.03C132.814 11.43 132.7 11.77 132.474 12.05C132.254 12.3233 131.98 12.4933 131.654 12.56C132.014 12.6133 132.317 12.8 132.564 13.12C132.817 13.4333 132.944 13.7933 132.944 14.2C132.944 14.7333 132.77 15.1667 132.424 15.5C132.084 15.8333 131.61 16 131.004 16ZM130.674 12.09C130.967 12.09 131.197 12.01 131.364 11.85C131.53 11.69 131.614 11.4833 131.614 11.23C131.614 10.97 131.53 10.76 131.364 10.6C131.197 10.44 130.967 10.36 130.674 10.36H128.804V12.09H130.674ZM130.724 14.97C131.044 14.97 131.294 14.89 131.474 14.73C131.654 14.5633 131.744 14.3333 131.744 14.04C131.744 13.78 131.654 13.5633 131.474 13.39C131.294 13.21 131.044 13.12 130.724 13.12H128.804V14.97H130.724ZM139.678 15.15C139.038 15.7967 138.222 16.12 137.228 16.12C136.235 16.12 135.418 15.7967 134.778 15.15C134.138 14.4967 133.818 13.67 133.818 12.67C133.818 11.67 134.138 10.8467 134.778 10.2C135.418 9.54667 136.235 9.22 137.228 9.22C138.222 9.22 139.038 9.54667 139.678 10.2C140.318 10.8467 140.638 11.67 140.638 12.67C140.638 13.67 140.318 14.4967 139.678 15.15ZM137.228 15.08C137.888 15.08 138.422 14.8533 138.828 14.4C139.235 13.94 139.438 13.3633 139.438 12.67C139.438 11.97 139.235 11.3933 138.828 10.94C138.422 10.4867 137.888 10.26 137.228 10.26C136.562 10.26 136.025 10.4867 135.618 10.94C135.218 11.3933 135.018 11.97 135.018 12.67C135.018 13.37 135.218 13.9467 135.618 14.4C136.025 14.8533 136.562 15.08 137.228 15.08ZM144.965 16.12C143.965 16.12 143.131 15.8 142.465 15.16C141.798 14.5133 141.465 13.6833 141.465 12.67C141.465 11.6567 141.798 10.83 142.465 10.19C143.131 9.54333 143.965 9.22 144.965 9.22C146.125 9.22 147.018 9.72 147.645 10.72L146.645 11.23C146.478 10.9433 146.241 10.71 145.935 10.53C145.635 10.35 145.311 10.26 144.965 10.26C144.305 10.26 143.755 10.4867 143.315 10.94C142.881 11.3933 142.665 11.97 142.665 12.67C142.665 13.37 142.881 13.9467 143.315 14.4C143.755 14.8533 144.305 15.08 144.965 15.08C145.318 15.08 145.645 14.99 145.945 14.81C146.245 14.63 146.478 14.3967 146.645 14.11L147.645 14.62C147.005 15.62 146.111 16.12 144.965 16.12ZM151.341 16H150.171V10.36H148.151V9.33H153.361V10.36H151.341V16ZM155.483 16H154.353V9.33H155.523V13.96L158.933 9.33H160.133V16H158.963V11.24L155.483 16Z" fill="white"/>
</svg>
