<svg width="156" height="32" viewBox="0 0 156 32" fill="none" xmlns="http://www.w3.org/2000/svg">
<rect width="156" height="32" fill="#E62117"/>
<g clip-path="url(#clip0_128_2645)">
<path d="M20.6966 20.35L29.3394 15.6625L20.6966 10.9188V20.35ZM24.0001 4.1875C26.0001 4.1875 27.9317 4.21563 29.7947 4.27188C31.6578 4.32812 33.0239 4.3875 33.893 4.45L35.1965 4.525C35.2084 4.525 35.3096 4.53438 35.5001 4.55313C35.6906 4.57188 35.8275 4.59063 35.9108 4.60938C35.9941 4.62813 36.134 4.65625 36.3304 4.69375C36.5269 4.73125 36.6965 4.78125 36.8394 4.84375C36.9822 4.90625 37.1489 4.9875 37.3394 5.0875C37.5298 5.1875 37.7144 5.30938 37.8929 5.45312C38.0715 5.59688 38.2441 5.7625 38.4108 5.95C38.4822 6.025 38.5745 6.14063 38.6876 6.29688C38.8007 6.45312 38.9733 6.81875 39.2054 7.39375C39.4376 7.96875 39.5953 8.6 39.6786 9.2875C39.7739 10.0875 39.8483 10.9406 39.9019 11.8469C39.9554 12.7531 39.9882 13.4625 40.0001 13.975V17.275C40.012 19.0875 39.9048 20.9 39.6786 22.7125C39.5953 23.4 39.4465 24.0219 39.2322 24.5781C39.0179 25.1344 38.8275 25.5188 38.6608 25.7313L38.4108 26.05C38.2441 26.2375 38.0715 26.4031 37.8929 26.5469C37.7144 26.6906 37.5298 26.8094 37.3394 26.9031C37.1489 26.9969 36.9822 27.075 36.8394 27.1375C36.6965 27.2 36.5269 27.25 36.3304 27.2875C36.134 27.325 35.9912 27.3531 35.9019 27.3719C35.8126 27.3906 35.6757 27.4094 35.4912 27.4281C35.3066 27.4469 35.2084 27.4563 35.1965 27.4563C32.2084 27.6938 28.4763 27.8125 24.0001 27.8125C21.5358 27.7875 19.396 27.7469 17.5805 27.6906C15.765 27.6344 14.5716 27.5875 14.0001 27.55L13.1251 27.475L12.4823 27.4C12.0537 27.3375 11.7293 27.275 11.5091 27.2125C11.2888 27.15 10.9853 27.0188 10.5984 26.8188C10.2115 26.6188 9.87516 26.3625 9.58944 26.05C9.51801 25.975 9.42575 25.8594 9.31266 25.7031C9.19956 25.5469 9.02694 25.1813 8.7948 24.6063C8.56266 24.0312 8.40492 23.4 8.32159 22.7125C8.22635 21.9125 8.15195 21.0594 8.09837 20.1531C8.0448 19.2469 8.01207 18.5375 8.00016 18.025V14.725C7.98826 12.9125 8.0954 11.1 8.32159 9.2875C8.40492 8.6 8.55373 7.97813 8.76802 7.42188C8.9823 6.86563 9.17278 6.48125 9.33944 6.26875L9.58944 5.95C9.75611 5.7625 9.92873 5.59688 10.1073 5.45312C10.2859 5.30938 10.4704 5.1875 10.6609 5.0875C10.8513 4.9875 11.018 4.90625 11.1609 4.84375C11.3037 4.78125 11.4734 4.73125 11.6698 4.69375C11.8662 4.65625 12.0061 4.62813 12.0894 4.60938C12.1728 4.59063 12.3097 4.57188 12.5001 4.55313C12.6906 4.53438 12.7918 4.525 12.8037 4.525C15.7918 4.3 19.5239 4.1875 24.0001 4.1875Z" fill="white"/>
</g>
<path d="M53.278 20H51.64V16.122L48.014 10.662H49.89L52.466 14.666L55.014 10.662H56.89L53.278 16.122V20ZM59.1681 20.168C58.1227 20.168 57.2827 19.8273 56.6481 19.146C56.0134 18.4553 55.6961 17.6107 55.6961 16.612C55.6961 15.6133 56.0134 14.7733 56.6481 14.092C57.2827 13.4107 58.1227 13.07 59.1681 13.07C60.2227 13.07 61.0674 13.4107 61.7021 14.092C62.3367 14.7733 62.6541 15.6133 62.6541 16.612C62.6541 17.62 62.3367 18.4647 61.7021 19.146C61.0674 19.8273 60.2227 20.168 59.1681 20.168ZM59.1681 18.866C59.7747 18.866 60.2507 18.6513 60.5961 18.222C60.9507 17.7833 61.1281 17.2467 61.1281 16.612C61.1281 15.9867 60.9507 15.4593 60.5961 15.03C60.2507 14.5913 59.7747 14.372 59.1681 14.372C58.5707 14.372 58.0947 14.5913 57.7401 15.03C57.3947 15.4593 57.2221 15.9867 57.2221 16.612C57.2221 17.2467 57.3947 17.7833 57.7401 18.222C58.0947 18.6513 58.5707 18.866 59.1681 18.866ZM70.1755 20H68.7055V19.104C68.0708 19.8133 67.2728 20.168 66.3115 20.168C64.8648 20.168 64.1415 19.454 64.1415 18.026V13.238H65.6115V17.494C65.6115 17.9887 65.7281 18.3433 65.9615 18.558C66.1948 18.7633 66.5308 18.866 66.9695 18.866C67.3241 18.866 67.6555 18.782 67.9635 18.614C68.2715 18.446 68.5188 18.236 68.7055 17.984V13.238H70.1755V20ZM74.9381 20H73.3001V12.104H70.4721V10.662H77.7661V12.104H74.9381V20ZM84.0934 20H82.6234V19.104C81.9888 19.8133 81.1908 20.168 80.2294 20.168C78.7828 20.168 78.0594 19.454 78.0594 18.026V13.238H79.5294V17.494C79.5294 17.9887 79.6461 18.3433 79.8794 18.558C80.1128 18.7633 80.4488 18.866 80.8874 18.866C81.2421 18.866 81.5734 18.782 81.8814 18.614C82.1894 18.446 82.4368 18.236 82.6234 17.984V13.238H84.0934V20ZM87.4728 17.97C87.6314 18.222 87.8741 18.4367 88.2008 18.614C88.5368 18.782 88.8728 18.866 89.2088 18.866C89.7874 18.866 90.2494 18.6607 90.5948 18.25C90.9494 17.83 91.1268 17.2887 91.1268 16.626C91.1268 15.9633 90.9494 15.422 90.5948 15.002C90.2494 14.582 89.7874 14.372 89.2088 14.372C88.8728 14.372 88.5414 14.4607 88.2148 14.638C87.8881 14.8153 87.6408 15.0347 87.4728 15.296V17.97ZM87.4728 20H86.0028V10.662H87.4728V14.176C88.0234 13.4387 88.7468 13.07 89.6428 13.07C90.5201 13.07 91.2388 13.3967 91.7988 14.05C92.3588 14.694 92.6388 15.5527 92.6388 16.626C92.6388 17.718 92.3588 18.5813 91.7988 19.216C91.2388 19.8507 90.5201 20.168 89.6428 20.168C88.7561 20.168 88.0328 19.804 87.4728 19.076V20ZM97.2595 20.168C96.2329 20.168 95.3835 19.8413 94.7115 19.188C94.0489 18.5253 93.7175 17.6667 93.7175 16.612C93.7175 15.6227 94.0395 14.7873 94.6835 14.106C95.3369 13.4153 96.1582 13.07 97.1475 13.07C98.1462 13.07 98.9489 13.4153 99.5555 14.106C100.172 14.7967 100.48 15.6787 100.48 16.752V17.102H95.2575C95.3135 17.634 95.5329 18.0773 95.9155 18.432C96.2982 18.7867 96.7975 18.964 97.4135 18.964C97.7589 18.964 98.1042 18.8987 98.4495 18.768C98.8042 18.6373 99.0982 18.4553 99.3315 18.222L100.004 19.188C99.3222 19.8413 98.4075 20.168 97.2595 20.168ZM99.0515 16.066C99.0329 15.5993 98.8602 15.184 98.5335 14.82C98.2162 14.456 97.7542 14.274 97.1475 14.274C96.5689 14.274 96.1162 14.456 95.7895 14.82C95.4629 15.1747 95.2809 15.59 95.2435 16.066H99.0515Z" fill="white"/>
<rect x="108" width="48" height="32" fill="#FAFAFA"/>
<path d="M119.71 20.154C118.618 20.154 117.727 19.8087 117.036 19.118L117.792 17.886C118.315 18.4273 118.954 18.698 119.71 18.698C120.503 18.698 121.11 18.3993 121.53 17.802C121.959 17.1953 122.174 16.472 122.174 15.632V15.352C121.931 15.6973 121.581 16.0053 121.124 16.276C120.667 16.5373 120.181 16.668 119.668 16.668C118.781 16.668 118.035 16.402 117.428 15.87C116.831 15.338 116.532 14.596 116.532 13.644C116.532 12.7573 116.849 12.0153 117.484 11.418C118.128 10.8113 118.959 10.508 119.976 10.508C120.853 10.508 121.586 10.7367 122.174 11.194C122.771 11.642 123.196 12.2207 123.448 12.93C123.7 13.63 123.826 14.4327 123.826 15.338C123.826 16.738 123.467 17.8907 122.748 18.796C122.029 19.7013 121.017 20.154 119.71 20.154ZM120.102 15.254C120.503 15.254 120.886 15.156 121.25 14.96C121.614 14.764 121.913 14.498 122.146 14.162C122.099 13.574 121.903 13.0607 121.558 12.622C121.222 12.1833 120.723 11.964 120.06 11.964C119.491 11.964 119.038 12.132 118.702 12.468C118.366 12.804 118.198 13.1773 118.198 13.588C118.198 14.1293 118.38 14.5447 118.744 14.834C119.108 15.114 119.561 15.254 120.102 15.254ZM128.118 20.154C127.026 20.154 126.135 19.8087 125.444 19.118L126.2 17.886C126.723 18.4273 127.362 18.698 128.118 18.698C128.912 18.698 129.518 18.3993 129.938 17.802C130.368 17.1953 130.582 16.472 130.582 15.632V15.352C130.34 15.6973 129.99 16.0053 129.532 16.276C129.075 16.5373 128.59 16.668 128.076 16.668C127.19 16.668 126.443 16.402 125.836 15.87C125.239 15.338 124.94 14.596 124.94 13.644C124.94 12.7573 125.258 12.0153 125.892 11.418C126.536 10.8113 127.367 10.508 128.384 10.508C129.262 10.508 129.994 10.7367 130.582 11.194C131.18 11.642 131.604 12.2207 131.856 12.93C132.108 13.63 132.234 14.4327 132.234 15.338C132.234 16.738 131.875 17.8907 131.156 18.796C130.438 19.7013 129.425 20.154 128.118 20.154ZM128.51 15.254C128.912 15.254 129.294 15.156 129.658 14.96C130.022 14.764 130.321 14.498 130.554 14.162C130.508 13.574 130.312 13.0607 129.966 12.622C129.63 12.1833 129.131 11.964 128.468 11.964C127.899 11.964 127.446 12.132 127.11 12.468C126.774 12.804 126.606 13.1773 126.606 13.588C126.606 14.1293 126.788 14.5447 127.152 14.834C127.516 15.114 127.969 15.254 128.51 15.254ZM136.526 20.154C135.434 20.154 134.543 19.8087 133.852 19.118L134.608 17.886C135.131 18.4273 135.77 18.698 136.526 18.698C137.32 18.698 137.926 18.3993 138.346 17.802C138.776 17.1953 138.99 16.472 138.99 15.632V15.352C138.748 15.6973 138.398 16.0053 137.94 16.276C137.483 16.5373 136.998 16.668 136.484 16.668C135.598 16.668 134.851 16.402 134.244 15.87C133.647 15.338 133.348 14.596 133.348 13.644C133.348 12.7573 133.666 12.0153 134.3 11.418C134.944 10.8113 135.775 10.508 136.792 10.508C137.67 10.508 138.402 10.7367 138.99 11.194C139.588 11.642 140.012 12.2207 140.264 12.93C140.516 13.63 140.642 14.4327 140.642 15.338C140.642 16.738 140.283 17.8907 139.564 18.796C138.846 19.7013 137.833 20.154 136.526 20.154ZM136.918 15.254C137.32 15.254 137.702 15.156 138.066 14.96C138.43 14.764 138.729 14.498 138.962 14.162C138.916 13.574 138.72 13.0607 138.374 12.622C138.038 12.1833 137.539 11.964 136.876 11.964C136.307 11.964 135.854 12.132 135.518 12.468C135.182 12.804 135.014 13.1773 135.014 13.588C135.014 14.1293 135.196 14.5447 135.56 14.834C135.924 15.114 136.377 15.254 136.918 15.254ZM147.847 15.758H145.257V18.656H144.221V15.758H141.631V14.806H144.221V12.006H145.257V14.806H147.847V15.758Z" fill="#AFB2C4"/>
<defs>
<clipPath id="clip0_128_2645">
<rect width="32" height="24" fill="white" transform="translate(8 4)"/>
</clipPath>
</defs>
</svg>
